<?xml version="1.0" encoding="UTF-8" standalone="no"?>
<!-- Created with Inkscape (http://www.inkscape.org/) -->

<!-- Reorganised with TEXT EDITOR (gedit under Ubuntu).
     This file is the general file for the USA alphanumerical keyboard :
     - it uses style sheet (css) [see details at section "style"]
     - it displays the standard pad
     - and optionnaly
        * for some keys : the draw and/or the text (↹ and/or TAB …)
     - keys and inscriptions are geographically referenced : "kb" + line(number) + range(letter) -->

<svg id="svg2"
   xmlns:dc="http://purl.org/dc/elements/1.1/"
   xmlns:cc="http://creativecommons.org/ns#"
   xmlns:rdf="http://www.w3.org/1999/02/22-rdf-syntax-ns#"
   xmlns:svg="http://www.w3.org/2000/svg"
   xmlns="http://www.w3.org/2000/svg"
   xmlns:xlink="http://www.w3.org/1999/xlink"
   xmlns:sodipodi="http://sodipodi.sourceforge.net/DTD/sodipodi-0.dtd"
   xmlns:inkscape="http://www.inkscape.org/namespaces/inkscape"
   version="1.0"
   xml:space="preserve"
   sodipodi:version="0.32"
   inkscape:version="0.48.0 r9654"
   inkscape:output_extension="org.inkscape.output.svg.inkscape"

   sodipodi:docname="KB_USA 800px.svg" width="800" height="247" viewBox="0 0 801 248" style="display:inline">

  <metadata
   id="metadata316">
    <rdf:RDF>
      <cc:Work rdf:about="">
        <dc:format>image/svg+xml</dc:format>
        <dc:type rdf:resource="http://purl.org/dc/dcmitype/StillImage" />
        <dc:title />
      </cc:Work>
    </rdf:RDF>
  </metadata>
  <sodipodi:namedview id="base"
   inkscape:window-width="1679"
   inkscape:window-height="1019"
   inkscape:pageshadow="2"
   inkscape:pageopacity="0.0"
   borderopacity="1.0"
   bordercolor="#666666"
   pagecolor="#ffffff"
   showguides="true"
   inkscape:guide-bbox="true"
   inkscape:zoom="0.6"
   inkscape:cx="400"
   inkscape:cy="123.5"
   inkscape:current-layer="layer3"
   inkscape:window-x="0"
   inkscape:window-y="0"
   showgrid="true"
   inkscape:window-maximized="1"
   inkscape:snap-bbox="true"
   inkscape:bbox-nodes="true"
   inkscape:snap-nodes="true"
   inkscape:snap-grids="true"
   inkscape:bbox-paths="false"
   fit-margin-top="0"
   fit-margin-left="0"
   fit-margin-right="0"
   fit-margin-bottom="0"
   units="px"
   inkscape:snap-bbox-edge-midpoints="false"
   inkscape:snap-bbox-midpoints="false"
   inkscape:snap-global="true"
   inkscape:snap-page="true"
   inkscape:snap-smooth-nodes="true">
  </sodipodi:namedview>
<defs id="defs4">
   <marker id="TriangleOutM" inkscape:stockid="TriangleOutM"
   style="overflow:visible"
   orient="auto"
   refY="0"
   refX="0">
    <path id="path4356" style="fill-rule:evenodd;stroke:black;stroke-width:1pt;marker-start:none"
   d="M 5.77,0 -2.88,5 -2.88,-5 5.77,0 z"
   transform="scale(0.4,0.4)"
   inkscape:connector-curvature="0" />
  </marker>
  <style id="style6" type="text/css">

<!--  General     : «#» style for «id» ; «.» class style (for particular style in group)
      DRAW styles : K_ : particular key style
      TEXT styles : «text» : common style for all text | T_ : text style | _L : large ; _s : very small -->
    
    <![CDATA[

      text            { writing-mode:lr-tb;font-weight:normal;font-family:Nimbus Sans L, Arial, sans-serif ;}

      #T_others       { font-size:16px; text-align:start ;text-anchor:start ;}
      #T_alterninsc   { font-size:14px; fill:dimgray    ;fill-opacity:1 ;stroke:none; text-align:start ;text-anchor:start ;}
      #T_stdletters   { font-size:18px; fill:black      ;fill-opacity:1 ;stroke:none; text-align:center;text-anchor:middle;}
      #T_stdspecial   { font-size:18px; fill:black      ;fill-opacity:1 ;stroke:none; text-align:center;text-anchor:middle;}
      #T_intodisuse   { font-size:18px; fill:dimgray    ;fill-opacity:1 ;stroke:none; text-align:center;text-anchor:middle;}
      #T_AltGr        { font-size:18px; fill:blue       ;fill-opacity:1 ;stroke:none; text-align:center;text-anchor:middle;}
      #T_AltGrSh      { font-size:18px; fill:dodgerblue ;fill-opacity:1 ;stroke:none; text-align:center;text-anchor:middle;}
      .T_UpAltGr      { font-size:18px; fill:skyblue    ;}
      .T_DeadKey      { font-size:21px; fill:red        ;font-family:sans ;}

      #T_Lx_AltGr     { font-size:18px; fill:purple     ;fill-opacity:1 ;stroke:none; text-align:center;text-anchor:middle;}
      #T_Lx_AltGrSh   { font-size:18px; fill:blueviolet ;fill-opacity:1 ;stroke:none; text-align:center;text-anchor:middle;}
      .T_Lx_UpAltGr   { font-size:18px; fill:violet     ;font-family:Sans;}
      .T_Lx_DeadKey   { font-size:21px; fill:darkorange ;fill-opacity:1 ;stroke:darkorange;stroke-width:0.6;}

      .T_size_s       { font-size:12px; fill:black      ;fill-opacity:1 ;stroke:none; text-align:start ;text-anchor:start ;}
      .T_size_L       { font-size:21px; }

      #GlyphKey       { fill:white      ;stroke:grey   ;stroke-width:1;}
      #ModifKey       { fill:gainsboro  ;stroke:grey   ;stroke-width:1;}
      #OtherKey       { fill:silver     ;stroke:grey   ;stroke-width:1;}
      .K_AltGr        { fill:lightblue  ;stroke:grey   ;stroke-width:1;}

     ]]>
       
    </style>        
</defs>
<!-- ========  Keyboard background ======== -->
<g inkscape:groupmode="layer" id="layer1" inkscape:label="Background" style="display:inline" sodipodi:insensitive="true">
      <rect id="Bckgrd" x="0" y="0" width="801" height="248" style="fill:wheat;stroke:none" />
</g>

<!-- ========     Keys      ======== -->
<g inkscape:groupmode="layer" id="layer2" inkscape:label="Keys"       style="display:inline" sodipodi:insensitive="true">
  <g id="GlyphKey">
<!-- Num keys - Standard letters keys - Specials glyphs keys - Ponctuation keys -->
    <rect id="K_kb2a" x="2"   y="2"   width="48"  height="44" rx="6" ry="6" />
    <use  id="K_kb2b" xlink:href="#K_kb2a" transform="translate(54,0)"/>
    <use  id="K_kb2c" xlink:href="#K_kb2a" transform="translate(108,0)"/>
    <use  id="K_kb2d" xlink:href="#K_kb2a" transform="translate(162,0)"/>
    <use  id="K_kb2e" xlink:href="#K_kb2a" transform="translate(216,0)"/>
    <use  id="K_kb2f" xlink:href="#K_kb2a" transform="translate(270,0)"/>
    <use  id="K_kb2g" xlink:href="#K_kb2a" transform="translate(324,0)"/>
    <use  id="K_kb2h" xlink:href="#K_kb2a" transform="translate(378,0)"/>
    <use  id="K_kb2i" xlink:href="#K_kb2a" transform="translate(432,0)"/>
    <use  id="K_kb2j" xlink:href="#K_kb2a" transform="translate(486,0)"/>
    <use  id="K_kb2k" xlink:href="#K_kb2a" transform="translate(540,0)"/>
    <use  id="K_kb2l" xlink:href="#K_kb2a" transform="translate(594,0)"/>
    <use  id="K_kb2m" xlink:href="#K_kb2a" transform="translate(648,0)"/>

    <use  id="K_kb3b" xlink:href="#K_kb2a" transform="translate(80,50)"/>
    <use  id="K_kb3c" xlink:href="#K_kb2a" transform="translate(134,50)"/>
    <use  id="K_kb3d" xlink:href="#K_kb2a" transform="translate(188,50)"/>
    <use  id="K_kb3e" xlink:href="#K_kb2a" transform="translate(242,50)"/>
    <use  id="K_kb3f" xlink:href="#K_kb2a" transform="translate(296,50)"/>
    <use  id="K_kb3g" xlink:href="#K_kb2a" transform="translate(350,50)"/>
    <use  id="K_kb3h" xlink:href="#K_kb2a" transform="translate(404,50)"/>
    <use  id="K_kb3i" xlink:href="#K_kb2a" transform="translate(458,50)"/>
    <use  id="K_kb3j" xlink:href="#K_kb2a" transform="translate(512,50)"/>
    <use  id="K_kb3k" xlink:href="#K_kb2a" transform="translate(566,50)"/>
    <use  id="K_kb3l" xlink:href="#K_kb2a" transform="translate(620,50)"/>
    <use  id="K_kb3m" xlink:href="#K_kb2a" transform="translate(674,50)"/>
    <rect id="K_kb3n" x="730" y="52"   width="70"  height="44" rx="6" ry="6" />

    <use  id="K_kb4b" xlink:href="#K_kb2a" transform="translate(96,100)"/>
    <use  id="K_kb4c" xlink:href="#K_kb2a" transform="translate(150,100)"/>
    <use  id="K_kb4d" xlink:href="#K_kb2a" transform="translate(204,100)"/>
    <use  id="K_kb4e" xlink:href="#K_kb2a" transform="translate(258,100)"/>
    <use  id="K_kb4f" xlink:href="#K_kb2a" transform="translate(312,100)"/>
    <use  id="K_kb4g" xlink:href="#K_kb2a" transform="translate(366,100)"/>
    <use  id="K_kb4h" xlink:href="#K_kb2a" transform="translate(420,100)"/>
    <use  id="K_kb4i" xlink:href="#K_kb2a" transform="translate(474,100)"/>
    <use  id="K_kb4j" xlink:href="#K_kb2a" transform="translate(528,100)"/>
    <use  id="K_kb4k" xlink:href="#K_kb2a" transform="translate(582,100)"/>
    <use  id="K_kb4l" xlink:href="#K_kb2a" transform="translate(636,100)"/>
    <use  id="K_kb4m" xlink:href="#K_kb2a" transform="translate(690,100)"/>

    <use  id="K_kb5c" xlink:href="#K_kb2a" transform="translate(116,150)"/>
    <use  id="K_kb5d" xlink:href="#K_kb2a" transform="translate(170,150)"/>
    <use  id="K_kb5e" xlink:href="#K_kb2a" transform="translate(224,150)"/>
    <use  id="K_kb5f" xlink:href="#K_kb2a" transform="translate(278,150)"/>
    <use  id="K_kb5g" xlink:href="#K_kb2a" transform="translate(332,150)"/>
    <use  id="K_kb5h" xlink:href="#K_kb2a" transform="translate(386,150)"/>
    <use  id="K_kb5i" xlink:href="#K_kb2a" transform="translate(440,150)"/>
    <use  id="K_kb5j" xlink:href="#K_kb2a" transform="translate(494,150)"/>
    <use  id="K_kb5k" xlink:href="#K_kb2a" transform="translate(548,150)"/>
    <use  id="K_kb5l" xlink:href="#K_kb2a" transform="translate(602,150)"/>

    <rect id="K_kb6d" x="188" y="202" width="364" height="44" rx="6" ry="6" />
  </g>

<!-- Modification keys -->
  <g id="ModifKey">
    <rect id="K_kb4a" x="2"   y="102" width="90"  height="44" rx="6" ry="6" />
    <rect id="K_kb5a" x="2"   y="152" width="110" height="44" rx="6" ry="6" />
    <rect id="K_kb5m" x="658" y="152" width="142" height="44" rx="6" ry="6" />
  </g>
  
<!-- Other keys -->
  <g id="OtherKey">
<!-- Backspace  --> <rect id="K_kb2n" x="704" y="2"   width="96"  height="44" rx="6" ry="6" />

<!-- Tabulation --> <rect id="K_kb3a" x="2"   y="52"  width="74"  height="44" rx="6" ry="6" />

<!-- Enter key --> 
    <rect id="K_kb4n" x="692" y="102" width="107" height="44" rx="6" ry="6" />

<!-- Ctrl 1 --> <rect id="K_kb6a" x="2"   y="202" width="56" height="44" rx="6" ry="6" />
<!-- Win  1 --> <rect id="K_kb6b" x="64"  y="202" width="56" height="44" rx="6" ry="6" />
<!-- Alt  1 --> <rect id="K_kb6c" x="126" y="202" width="56" height="44" rx="6" ry="6" />
<!-- Alt  2 --> <rect id="K_kb6k" x="558" y="202" width="56" height="44" rx="6" ry="6" />
<!-- Win  2 --> <rect id="K_kb6l" x="620" y="202" width="56" height="44" rx="6" ry="6" />
<!-- Menu   --> <rect id="K_kb6m" x="682" y="202" width="56" height="44" rx="6" ry="6" />
<!-- Ctrl 2 --> <rect id="K_kb6n" x="744" y="202" width="56" height="44" rx="6" ry="6" />
  </g>
  
</g>
<!-- ========     Key signs    ======== -->
<g inkscape:groupmode="layer" id="DrawedInscr" inkscape:label="DrawedInscr" style="display:inline">
  
<!-- Windows keys -->
  <g id="S_kb6b" style="stroke:white;stroke-width:0.4">
    <path id="WinLogo-1" style="fill:#666"
          d="M 75.38,223.05 C 78.27,222 81.28,222.2 84.41,223.34 L 86.84,216.82 C 83.92,215.72 80.95,215.23 77.75,216.6 L 75.38,223.05 z"
          sodipodi:nodetypes="ccccc" inkscape:connector-curvature="0" />
    <path id="WinLogo-2" style="fill:#9b9b9b"
          d="M 87.6,216.98 C 91.71,218.37 94.64,217.9 96.86,217.44 L 94.48,223.7 C 90.21,225.27 87.64,224.25 85.14,223.55 L 87.6,216.98 z"
          sodipodi:nodetypes="ccccc" inkscape:connector-curvature="0" />
    <path id="WinLogo-3" style="fill:#c1c1c1"
          d="M 84.94,224.13 C 87.69,225.01 90.58,225.56 94.22,224.43 L 91.29,231.55 C 87.82,232.87 85.18,232.42 82.23,231.37 L 84.94,224.13 z"
          sodipodi:nodetypes="ccccc" inkscape:connector-curvature="0" />
    <path id="WinLogo-4" style="fill:#555"
          d="M 72.38,230.91 C 75.31,229.76 78.33,230 81.41,231.16 L 84.14,223.9 C 82.86,223.47 80,222.29 75,223.82 L 72.38,230.91 z"
          sodipodi:nodetypes="ccccc" inkscape:connector-curvature="0" />
    <text id="WinLogo-5" x="94" y="235" class="T_size_s">™</text>
  </g>
  <use id="S_kb6l" xlink:href="#S_kb6b" transform="translate(556,0)" x="0" y="0" width="1" height="1" />
<!--   Menu key     -->
  <g id="S_kb6m">
    <rect id="Menu-1" x="690" y="214" width="16" height="20"
          style="fill:#d2cfcf;stroke:black;stroke-width:1;stroke-linecap:round;stroke-linejoin:round" />
    <path id="Menu-2"
          style="fill:none;stroke:black;stroke-width:4;stroke-linecap:square;stroke-linejoin:miter"
          d="M 691.5,214 704.5,214 M 691.5,219 704.5,219" />
    <path id="Menu-3"
          style="fill:none;stroke:black;stroke-width:2;stroke-linecap:square;stroke-linejoin:miter"
          d="M 693,223 703,223 M 693,227 703,227 M 693,231 703,231" />
    <path id="Menu-4"
          style="fill:none;stroke:#d2cfcf;stroke-width:2;stroke-linecap:square;stroke-linejoin:miter"
          d="M 693,219 703,219" />
    <path id="Menu-arrow"
          style="fill:#d2cfcf;stroke:black;stroke-width:1.4;stroke-linecap:butt;stroke-linejoin:round"
          d="M 706,231 708,228 712,232 714,230 710,226 712,224 701,219 706,231 z"
          sodipodi:nodetypes="cccccccc" />
  </g>
<!--    Backspace     -->
  <path id="S_kb2n"
        style="fill:none;stroke:black;stroke-width:2;marker-end:url(#TriangleOutM)"
        d="M 738,20 718,20"
        sodipodi:nodetypes="cc" />
  
<!-- ========     Alternates signs    ======== -->
  <g inkscape:groupmode="layer" id="sublayer3a" inkscape:label="alternative signs" sodipodi:insensitive="true" style="display:inline">
<!-- Tabulations  -->
    <path id="S_kb3a-l1"
          style="fill:none;stroke:black;stroke-width:2;marker-end:url(#TriangleOutM)"
          d="M 34,66 14,66" />
    <path id="S_kb3a-l2"
          style="fill:none;stroke:black;stroke-width:2"
          d="M 8,60 8,72" />
    <path id="S_kb3a-r1"
          style="fill:none;stroke:black;stroke-width:2;marker-end:url(#TriangleOutM)"
          d="M 8,82 28,82" />
    <path id="S_kb3a-r2"
          style="fill:none;stroke:black;stroke-width:2"
          d="M 34,76 34,88" />
<!-- Shift  -->
    <path id="S_kb5a" style="fill:none;stroke:black;stroke-width:2"
          d="M 18,166 10,174 14,174 14,180 22,180 22,174 26,174 z"
          inkscape:connector-curvature="0" />
    <use  id="S_kb5n" xlink:href="#S_kb5a" transform="translate(660,0)" x="0" y="0" width="1" height="1" />
<!--      Enter  -->
    <path id="S_kb4n" style="fill:none;stroke:black;stroke-width:2;marker-end:url(#TriangleOutM)"
          d="M 784,118 784,126 766,126"
          inkscape:connector-curvature="0" />
<!-- Caps Lock  -->
    <g id="S_kb4a">
      <rect id="CapsLock-1" x="10" y="120" width="18" height="14" ry="1" rx="1"
            style="fill:none;stroke:black;stroke-width:1.6"  />
      <path id="CapsLock-2"
            style="fill:none;stroke:black;stroke-width:1.4"
            d="M 12,120 v-3 a7,6 0 0,1 14,0 v3 m-12,0 v-3 a5,4 0 0,1 10,0 v3"  />
      <ellipse id="CapsLock-3" cx="19" cy="125" rx="1" ry="2"
            sodipodi:cx="19" sodipodi:cy="125" sodipodi:rx="1" sodipodi:ry="2"
            style="fill:none;stroke:black;stroke-width:1.2" />
    </g>
  </g>
</g>
<!-- ========     Inscriptions layer    ======== -->
<g inkscape:groupmode="layer" id="la-us" inkscape:label="incriptions" sodipodi:insensitive="true" style="display:inline">
  
  <g id="T_stdletters">

    <text id="T_kb3b1" x="96"  y="90" >◌່</text> 
    <text id="T_kb3b2" x="96"  y="70" >◌້</text>

    <text id="T_kb3c1" x="150" y="90"  >ໄ</text>
    <text id="T_kb3c2" x="150" y="70"  >ໃ</text>

    <text id="T_kb3d1" x="204" y="90"  >ເ</text>
    <text id="T_kb3d2" x="204" y="70"  >ແ</text>
    
    <text id="T_kb3e1" x="258" y="90"  >ຣ</text>

    <text id="T_kb3f1" x="312" y="90"  >ຕ</text>
    <text id="T_kb3f2" x="312" y="70"  >ຖ</text>

    <text id="T_kb3g1" x="366" y="90"  >ຢ</text>
    <text id="T_kb3g2" x="366" y="70"  >ຽ</text>

    <text id="T_kb3h1" x="420" y="88"  >◌ູ</text>
    <text id="T_kb3h2" x="420" y="70"  >◌ຸ</text>

    <text id="T_kb3i1" x="474" y="90"  >◌ີ</text>
    <text id="T_kb3i2" x="474" y="70"  >◌ິ</text>

    <text id="T_kb3j1" x="528" y="90"  >ໂ</text>
    <text id="T_kb3j2" x="528" y="70"  >◌ໍ</text>
    <text id="T_kb3j3" x="548" y="90" >◌ົ</text>

    <text id="T_kb3k1" x="582" y="90"  >ປ</text>
    <text id="T_kb3k2" x="582" y="70"  >ຜ</text>


    <text id="T_kb4c1" x="112" y="140" >າ</text>
    <text id="T_kb4c2" x="112" y="120" >ະ</text>
    <text id="T_kb4c3" x="132" y="140" >◌ັ</text>

    <text id="T_kb4d1" x="166" y="140" >ຊ</text>
    <text id="T_kb4d2" x="166" y="120" >ສ</text>

    <text id="T_kb4e1" x="220" y="140" >ດ</text>
    <text id="T_kb4e2" x="220" y="120" >ທ</text>

    <text id="T_kb4f1" x="274" y="140" >ຟ</text>
    <text id="T_kb4f2" x="274" y="120" >ຝ</text>

    <text id="T_kb4g1" x="328" y="140" >ງ</text>
    <text id="T_kb4g2" x="328" y="120" >ໆ</text>

    <text id="T_kb4h1" x="382" y="140" >ຮ</text>
    <text id="T_kb4h2" x="382" y="120" >ຫ</text>

    <text id="T_kb4i1" x="436" y="140" >ຍ</text>
    <text id="T_kb4i2" x="436" y="120" >ຍ</text>

    <text id="T_kb4j1" x="490" y="140" >ກ</text>
    <text id="T_kb4j2" x="490" y="120" >ຂ</text>

    <text id="T_kb4k1" x="544" y="140" >ລ</text>
    <text id="T_kb4k2" x="544" y="120" >◌ຼ</text>


    <text id="T_kb5c1" x="132" y="192" >◌ົ</text>

    <text id="T_kb5d1" x="186" y="192" >ຄ</text>
    <text id="T_kb5d2" x="186" y="172" >◌ັ</text>

    <text id="T_kb5e1" x="240" y="192" >ຈ</text>
    <text id="T_kb5e2" x="240" y="172" >ອ</text>

    <text id="T_kb5f1" x="294" y="192" >ວ</text>

    <text id="T_kb5g1" x="348" y="192" >ບ</text>
    <text id="T_kb5g2" x="348" y="172" >ພ</text>

    <text id="T_kb5h1" x="402" y="192" >ນ</text>
    <text id="T_kb5h2" x="402" y="172" >ໜ</text>

    <text id="T_kb5i1" x="454" y="192" >ມ</text>
    <text id="T_kb5i2" x="454" y="172" >ໝ</text>

  </g>

  <g id="T_stdspecial">

    <text id="T_kb2a1" x="14"  y="40" class="T_size_L">`</text>
    <text id="T_kb2a2" x="14"  y="18" class="T_size_L">~</text>

    <text id="T_kb2b1" x="68"  y="40" >1</text>
    <text id="T_kb2b3" x="68"  y="20" >໑</text> 
    <text id="T_kb2b4" x="88"  y="40" >◌່</text> 
    <text id="T_kb2b2" x="88"  y="20" >!</text> 

    <text id="T_kb2c1" x="122" y="40" >2</text>
    <text id="T_kb2c3" x="122" y="20" >໒</text>
    <text id="T_kb2c4" x="142" y="40" >◌້</text>
    <text id="T_kb2c2" x="142" y="20" >@</text>

    <text id="T_kb2d1" x="176" y="40" >3</text>
    <text id="T_kb2d3" x="176" y="20" >໓</text>
    <text id="T_kb2d4" x="196" y="40" >◌໊</text>
    <text id="T_kb2d2" x="196" y="20" >#</text>

    <text id="T_kb2e1" x="230" y="40" >4</text>
    <text id="T_kb2e3" x="230" y="20" >໔</text>
    <text id="T_kb2e4" x="250" y="40" >◌໋</text>
    <text id="T_kb2e2" x="250" y="20" >$</text>
    
    <text id="T_kb2f1" x="284" y="40" >5</text>
    <text id="T_kb2f3" x="284" y="20" >໕</text>
    <text id="T_kb2f4" x="304" y="40" >◌໌</text>
    <text id="T_kb2f2" x="304" y="20" >%</text>
    
    <text id="T_kb2g1" x="338" y="40" >6</text>
    <text id="T_kb2g3" x="338" y="20" >໖</text>
    <text id="T_kb2g2" x="358" y="22" class="T_size_L">^</text>
    
    <text id="T_kb2h1" x="392" y="40" >7</text>
    <text id="T_kb2h3" x="392" y="20" >໗</text>
    <text id="T_kb2h2" x="412" y="20" >&amp;</text>
    
    <text id="T_kb2i1" x="446" y="40" >8</text>
    <text id="T_kb2i3" x="446" y="20" >໘</text>
    <text id="T_kb2i2" x="466" y="20" >∗</text>
    
    <text id="T_kb2j1" x="500" y="40" >9</text>
    <text id="T_kb2j3" x="500" y="20" >໙</text>
    <text id="T_kb2j2" x="520" y="20" >(</text>
    
    <text id="T_kb2k1" x="554" y="40" >0</text>
    <text id="T_kb2k3" x="554" y="20" >໐</text>
    <text id="T_kb2k2" x="574" y="20" >)</text>
    
    <text id="T_kb2l1" x="605" y="40" >-</text>
    <text id="T_kb2l2" x="608" y="20" >_</text>
    <text id="T_kb2l4" x="628" y="20" >ຯ</text>
    
    <text id="T_kb2m1" x="662" y="40" >=</text>
    <text id="T_kb2m2" x="662" y="20" >+</text>

    <text id="T_kb3l1" x="636" y="90"  >[</text>
    <text id="T_kb3m1" x="690" y="90"  >]</text>
    <text id="T_kb3n1" x="744" y="90"  >\</text>


    <text id="T_kb4l1" x="598" y="142" >;</text>
    <text id="T_kb4m1" x="652" y="142" class="T_size_L">'</text>

    <text id="T_kb5j1" x="508" y="190" >,</text>
    <text id="T_kb5j2" x="508" y="170" >◌ຶ</text>

    <text id="T_kb5k1" x="562" y="192" >.</text>
    <text id="T_kb5k2" x="562" y="170" >◌ື</text>

    <text id="T_kb5l1" x="616" y="192" >/</text>


    <text id="T_kb3l2" x="636" y="68" >{</text>
    <text id="T_kb3m2" x="690" y="68" >}</text>
    <text id="T_kb3n2" x="744" y="68" >|</text>

    <text id="T_kb4l2" x="598" y="122" >:</text>
    <text id="T_kb4m2" x="652" y="122" class="T_size_L">"</text>

    <text id="T_kb5l2" x="616" y="170" >?</text>
  </g>

  <g id="T_others">
    <text id="T_kb6a" x="10"  y="230" >Ctrl</text>
    <text id="T_kb6c" x="134" y="230" >Alt</text>
    <text id="T_kb6k" x="564" y="230" >Alt</text>
    <text id="T_kb6n" x="750" y="230" >Ctrl</text>
  </g>
<!-- ========     alternates inscriptions    ======== -->
  <g inkscape:groupmode="layer" id="sublayer4a" inkscape:label="alternative inscriptions" style="display:inline">
    <g id="T_alterninsc" >
      <text id="T_kb2n"  x="716" y="40" >Backspace</text>
      <text id="T_kb3a"  x="40"  y="80" >Tab</text>
      <text id="T_kb4n"  x="700" y="130">Enter</text>
      <text id="T_kb4a1" x="40"  y="120">Caps</text>
      <text id="T_kb4a2" x="40"  y="136">Lock</text>
      <text id="T_kb5a"  x="40"  y="180">Shift</text>
      <text id="T_kb5m"  x="700" y="180">Shift</text>
    </g>
  </g>
</g>
</svg>
